<svg width="64" height="64" viewBox="0 0 64 64" fill="none" xmlns="http://www.w3.org/2000/svg">
<path d="M51.6 23.5L52.8 25.1L54.4 23.9L50.9 19L49.3 20.2L50.5 21.8L48.7 23.1C45.4 18.9 40.6 15.9 35.1 15.1V13H38.1V7H26V13H29V15.2C20.8 16.4 14.1 22.3 11.9 30C11.9 30.1 11.8 30.2 11.8 30.2L11.7 30.7V30.9L11.6 31.4C11.5 31.9 11.8 32.5 12.4 32.6C12.9 32.7 13.5 32.4 13.6 31.9L13.8 30.9C16 22.8 23.4 16.9 32.1 16.9C42.6 16.9 51.1 25.4 51.1 35.9C51.1 46.4 42.6 54.9 32.1 54.9C23.3 54.9 16 49 13.8 40.9L13.5 39.8C13.4 39.3 12.8 38.9 12.3 39.1C11.8 39.2 11.4 39.8 11.5 40.3L11.6 40.9C11.6 41 11.7 41.1 11.7 41.2L11.8 41.5C11.8 41.6 11.8 41.6 11.9 41.7C14.3 50.6 22.4 57 32 57C43.6 57 53 47.6 53 36C53 31.9 51.8 28.1 49.8 24.8L51.6 23.5ZM28 11V9H36V11H28ZM31 15V13H33V15.1C32.7 15.1 32.3 15 32 15H31ZM11 36C11 36.2652 11.1054 36.5196 11.2929 36.7071C11.4804 36.8946 11.7348 37 12 37C12.2652 37 12.5196 36.8946 12.7071 36.7071C12.8946 36.5196 13 36.2652 13 36C13 35.7348 12.8946 35.4804 12.7071 35.2929C12.5196 35.1054 12.2652 35 12 35C11.7348 35 11.4804 35.1054 11.2929 35.2929C11.1054 35.4804 11 35.7348 11 36ZM37.5 21C29.2 18 20 22.3 17 30.6C14 38.9 18.2 48 26.5 51C34.8 54 44 49.7 47 41.4C48.2 38.2 48.2 34.9 47.5 31.9V31.6C47.4 31.2 47.3 30.8 47.1 30.4L46.9 29.8C46.7 29.3 46.2 29 45.6 29.1C45.1 29.3 44.8 29.8 45 30.4L45.6 32.1C46.4 34.8 46.3 37.8 45.3 40.6C42.7 47.9 34.6 51.6 27.4 49C20.1 46.4 16.4 38.3 19 31.1C21.6 23.8 29.7 20.1 36.9 22.7C38.4 23.2 39.7 24 40.8 24.9L41.9 25.9C42.3 26.3 42.9 26.2 43.3 25.8C43.7 25.4 43.6 24.8 43.2 24.4L43 24.2C41.4 22.9 39.6 21.7 37.5 21ZM36.5 30.8C35.3 30.8 34.4 31.2 33.9 32.1C33.3 32.9 33 34.2 33 36C33 37.7 33.3 39 33.9 39.8C34.5 40.7 35.4 41.1 36.5 41.1C37.7 41.1 38.6 40.7 39.1 39.8C39.7 39 40 37.7 40 36C40 34.3 39.7 33 39.1 32.2C38.5 31.4 37.6 30.8 36.5 30.8ZM37.6 38.6C37.4 39.1 37 39.4 36.5 39.4C36 39.4 35.6 39.1 35.4 38.6C35.2 38.1 35.1 37.2 35.1 36C35.1 34.8 35.2 33.9 35.4 33.4C35.6 32.9 36 32.6 36.5 32.6C37 32.6 37.3 32.9 37.6 33.4C37.8 33.9 37.9 34.8 37.9 36C37.9 37.2 37.8 38.1 37.6 38.6ZM28.4 32.9C28.9 32.7 29.4 32.6 30.2 32.6C30.6 32.6 31 32.6 31.4 32.7V31C31.1 30.9 30.6 30.9 30.1 30.9C28.4 30.9 27.2 31.4 26.3 32.3C25.5 33.3 25 34.7 25 36.7C25 37.6 25.1 38.4 25.4 39.1C25.7 39.8 26.1 40.3 26.7 40.6C27.3 40.9 27.9 41.1 28.6 41.1C29.7 41.1 30.5 40.8 31.1 40.2C31.7 39.6 32 38.7 32 37.7C32 36.7 31.7 35.9 31.2 35.4C30.7 34.9 30 34.6 29.1 34.6C28.1 34.6 27.4 35 26.9 35.8H26.8C26.8 35 27 34.4 27.2 34C27.6 33.4 27.9 33.1 28.4 32.9ZM27.6 36.5C27.9 36.2 28.3 36.1 28.7 36.1C29.2 36.1 29.5 36.2 29.7 36.5C29.9 36.8 30 37.2 30 37.7C30 38.3 29.9 38.7 29.6 39C29.4 39.3 29 39.5 28.6 39.5C28.2 39.5 27.8 39.3 27.5 38.9C27.2 38.5 27.1 38.1 27.1 37.5C27.1 37.1 27.3 36.8 27.6 36.5Z" fill="black"/>
</svg>
