<svg width="64" height="64" viewBox="0 0 64 64" fill="none" xmlns="http://www.w3.org/2000/svg">
<path d="M23.5 17.0002C23.6307 17.0012 23.7604 16.9763 23.8815 16.927C24.0026 16.8776 24.1127 16.8049 24.2056 16.7129C24.2985 16.621 24.3724 16.5115 24.4229 16.3909C24.4734 16.2704 24.4996 16.141 24.5 16.0102V11.9902C24.5 11.725 24.3946 11.4707 24.2071 11.2831C24.0196 11.0956 23.7652 10.9902 23.5 10.9902C23.2348 10.9902 22.9804 11.0956 22.7929 11.2831C22.6054 11.4707 22.5 11.725 22.5 11.9902V16.0102C22.5026 16.2737 22.6092 16.5255 22.7964 16.7109C22.9837 16.8963 23.2365 17.0002 23.5 17.0002ZM27.5 15.0002H37.5C37.7652 15.0002 38.0196 14.8949 38.2071 14.7073C38.3946 14.5198 38.5 14.2655 38.5 14.0002C38.5 13.735 38.3946 13.4807 38.2071 13.2931C38.0196 13.1056 37.7652 13.0002 37.5 13.0002H27.5C27.2348 13.0002 26.9804 13.1056 26.7929 13.2931C26.6054 13.4807 26.5 13.735 26.5 14.0002C26.5 14.2655 26.6054 14.5198 26.7929 14.7073C26.9804 14.8949 27.2348 15.0002 27.5 15.0002ZM41.5 17.0002C41.6307 17.0012 41.7604 16.9763 41.8815 16.927C42.0026 16.8776 42.1127 16.8049 42.2056 16.7129C42.2985 16.621 42.3724 16.5115 42.4229 16.3909C42.4734 16.2704 42.4996 16.141 42.5 16.0102V11.9902C42.5 11.725 42.3946 11.4707 42.2071 11.2831C42.0196 11.0956 41.7652 10.9902 41.5 10.9902C41.2348 10.9902 40.9804 11.0956 40.7929 11.2831C40.6054 11.4707 40.5 11.725 40.5 11.9902V16.0102C40.5026 16.2737 40.6092 16.5255 40.7964 16.7109C40.9837 16.8963 41.2365 17.0002 41.5 17.0002ZM51.002 13.0002H45.5C45.2348 13.0002 44.9804 13.1056 44.7929 13.2931C44.6054 13.4807 44.5 13.735 44.5 14.0002C44.5 14.2655 44.6054 14.5198 44.7929 14.7073C44.9804 14.8949 45.2348 15.0002 45.5 15.0002H51.003C51.2655 15.0001 51.5255 15.0518 51.7681 15.1523C52.0106 15.2528 52.2309 15.4001 52.4165 15.5859C52.602 15.7717 52.749 15.9922 52.8491 16.2349C52.9493 16.4776 53.0005 16.7377 53 17.0002V47.0002C53 47.5303 52.7896 48.0387 52.4149 48.4137C52.0403 48.7888 51.5321 48.9997 51.002 49.0002H50C49.7348 49.0002 49.4804 49.1056 49.2929 49.2931C49.1054 49.4807 49 49.735 49 50.0002C49 50.2655 49.1054 50.5198 49.2929 50.7073C49.4804 50.8949 49.7348 51.0002 50 51.0002H51.003C52.0633 50.9994 53.08 50.5777 53.8295 49.8276C54.579 49.0775 55 48.0606 55 47.0002V17.0002C55.0005 16.475 54.8975 15.9548 54.6968 15.4693C54.4961 14.9839 54.2016 14.5429 53.8303 14.1713C53.459 13.7998 53.0181 13.5052 52.5327 13.3042C52.0474 13.1033 51.5273 13 51.002 13.0002ZM45 50.0002C45 50.2655 45.1054 50.5198 45.2929 50.7073C45.4804 50.8949 45.7348 51.0002 46 51.0002C46.2652 51.0002 46.5196 50.8949 46.7071 50.7073C46.8946 50.5198 47 50.2655 47 50.0002C47 49.735 46.8946 49.4807 46.7071 49.2931C46.5196 49.1056 46.2652 49.0002 46 49.0002C45.7348 49.0002 45.4804 49.1056 45.2929 49.2931C45.1054 49.4807 45 49.735 45 50.0002ZM42.001 49.0002H12.998C12.7354 49.0004 12.4754 48.9487 12.2328 48.8482C11.9902 48.7477 11.7698 48.6004 11.5842 48.4146C11.3986 48.2289 11.2515 48.0083 11.1512 47.7656C11.051 47.5229 10.9996 47.2628 11 47.0002V17.0002C11 16.4701 11.2104 15.9617 11.5851 15.5867C11.9597 15.2117 12.4679 15.0008 12.998 15.0002H19.5C19.7652 15.0002 20.0196 14.8949 20.2071 14.7073C20.3946 14.5198 20.5 14.2655 20.5 14.0002C20.5 13.735 20.3946 13.4807 20.2071 13.2931C20.0196 13.1056 19.7652 13.0002 19.5 13.0002H12.998C11.9375 13.0008 10.9206 13.4224 10.1709 14.1725C9.42116 14.9226 9 15.9397 9 17.0002V47.0002C8.99948 47.5255 9.10251 48.0457 9.30322 48.5311C9.50393 49.0165 9.79837 49.4576 10.1697 49.8291C10.541 50.2006 10.982 50.4953 11.4673 50.6963C11.9526 50.8972 12.4727 51.0005 12.998 51.0002H42C42.2652 51.0002 42.5196 50.8949 42.7071 50.7073C42.8946 50.5198 43 50.2655 43 50.0002C43 49.735 42.8946 49.4807 42.7071 49.2931C42.5196 49.1056 42.2662 49.0002 42.001 49.0002ZM35 24.0002C35 24.5307 35.2107 25.0394 35.5858 25.4144C35.9609 25.7895 36.4696 26.0002 37 26.0002C37.5304 26.0002 38.0391 25.7895 38.4142 25.4144C38.7893 25.0394 39 24.5307 39 24.0002C39 23.4698 38.7893 22.9611 38.4142 22.586C38.0391 22.2109 37.5304 22.0002 37 22.0002C36.4696 22.0002 35.9609 22.2109 35.5858 22.586C35.2107 22.9611 35 23.4698 35 24.0002ZM44 24.0002C44 24.5307 44.2107 25.0394 44.5858 25.4144C44.9609 25.7895 45.4696 26.0002 46 26.0002C46.5304 26.0002 47.0391 25.7895 47.4142 25.4144C47.7893 25.0394 48 24.5307 48 24.0002C48 23.4698 47.7893 22.9611 47.4142 22.586C47.0391 22.2109 46.5304 22.0002 46 22.0002C45.4696 22.0002 44.9609 22.2109 44.5858 22.586C44.2107 22.9611 44 23.4698 44 24.0002ZM26 32.0002C26 32.5307 26.2107 33.0394 26.5858 33.4144C26.9609 33.7895 27.4696 34.0002 28 34.0002C28.5304 34.0002 29.0391 33.7895 29.4142 33.4144C29.7893 33.0394 30 32.5307 30 32.0002C30 31.4698 29.7893 30.9611 29.4142 30.586C29.0391 30.2109 28.5304 30.0002 28 30.0002C27.4696 30.0002 26.9609 30.2109 26.5858 30.586C26.2107 30.9611 26 31.4698 26 32.0002ZM17 32.0002C17 32.5307 17.2107 33.0394 17.5858 33.4144C17.9609 33.7895 18.4696 34.0002 19 34.0002C19.5304 34.0002 20.0391 33.7895 20.4142 33.4144C20.7893 33.0394 21 32.5307 21 32.0002C21 31.4698 20.7893 30.9611 20.4142 30.586C20.0391 30.2109 19.5304 30.0002 19 30.0002C18.4696 30.0002 17.9609 30.2109 17.5858 30.586C17.2107 30.9611 17 31.4698 17 32.0002ZM33 32.0002C33 32.7914 33.2346 33.5647 33.6741 34.2225C34.1136 34.8803 34.7384 35.393 35.4693 35.6958C36.2002 35.9985 37.0044 36.0777 37.7804 35.9234C38.5563 35.769 39.269 35.3881 39.8284 34.8287C40.3878 34.2693 40.7688 33.5565 40.9231 32.7806C41.0775 32.0047 40.9983 31.2004 40.6955 30.4695C40.3928 29.7386 39.8801 29.1139 39.2223 28.6744C38.5645 28.2348 37.7911 28.0002 37 28.0002C35.9391 28.0002 34.9217 28.4217 34.1716 29.1718C33.4214 29.922 33 30.9394 33 32.0002ZM39 32.0002C39 32.3958 38.8827 32.7825 38.6629 33.1114C38.4432 33.4403 38.1308 33.6966 37.7654 33.848C37.3999 33.9994 36.9978 34.039 36.6098 33.9618C36.2219 33.8846 35.8655 33.6942 35.5858 33.4144C35.3061 33.1347 35.1156 32.7784 35.0384 32.3904C34.9613 32.0025 35.0009 31.6003 35.1522 31.2349C35.3036 30.8694 35.56 30.5571 35.8889 30.3373C36.2178 30.1175 36.6044 30.0002 37 30.0002C37.5304 30.0002 38.0391 30.2109 38.4142 30.586C38.7893 30.9611 39 31.4698 39 32.0002ZM44 32.0002C44 32.5307 44.2107 33.0394 44.5858 33.4144C44.9609 33.7895 45.4696 34.0002 46 34.0002C46.5304 34.0002 47.0391 33.7895 47.4142 33.4144C47.7893 33.0394 48 32.5307 48 32.0002C48 31.4698 47.7893 30.9611 47.4142 30.586C47.0391 30.2109 46.5304 30.0002 46 30.0002C45.4696 30.0002 44.9609 30.2109 44.5858 30.586C44.2107 30.9611 44 31.4698 44 32.0002ZM26 40.0002C26 40.5307 26.2107 41.0394 26.5858 41.4144C26.9609 41.7895 27.4696 42.0002 28 42.0002C28.5304 42.0002 29.0391 41.7895 29.4142 41.4144C29.7893 41.0394 30 40.5307 30 40.0002C30 39.4698 29.7893 38.9611 29.4142 38.586C29.0391 38.2109 28.5304 38.0002 28 38.0002C27.4696 38.0002 26.9609 38.2109 26.5858 38.586C26.2107 38.9611 26 39.4698 26 40.0002ZM17 40.0002C17 40.5307 17.2107 41.0394 17.5858 41.4144C17.9609 41.7895 18.4696 42.0002 19 42.0002C19.5304 42.0002 20.0391 41.7895 20.4142 41.4144C20.7893 41.0394 21 40.5307 21 40.0002C21 39.4698 20.7893 38.9611 20.4142 38.586C20.0391 38.2109 19.5304 38.0002 19 38.0002C18.4696 38.0002 17.9609 38.2109 17.5858 38.586C17.2107 38.9611 17 39.4698 17 40.0002Z" fill="black"/>
</svg>
