<svg width="64" height="64" viewBox="0 0 64 64" fill="none" xmlns="http://www.w3.org/2000/svg">
<path d="M12 42C12.6 42 13 41.6 13 41V26C13 25.4 13.4 25 13.9 25H46.2C46.7 25 47.1 25.4 47.1 26V30C47.1 30.6 47.6 31 48.1 31C48.7 31 49.1 30.6 49.1 30V26C49.1 24.3 47.9 23 46.5 23H30C30 20.2 27.8 18 25 18C22.2 18 20 20.2 20 23H13.6C12.2 23 11 24.3 11 26V41C11 41.6 11.5 42 12 42ZM25 20C26.7 20 28 21.3 28 23H22C22 21.3 23.3 20 25 20ZM11 45C11 45.2652 11.1054 45.5196 11.2929 45.7071C11.4804 45.8946 11.7348 46 12 46C12.2652 46 12.5196 45.8946 12.7071 45.7071C12.8946 45.5196 13 45.2652 13 45C13 44.7348 12.8946 44.4804 12.7071 44.2929C12.5196 44.1054 12.2652 44 12 44C11.7348 44 11.4804 44.1054 11.2929 44.2929C11.1054 44.4804 11 44.7348 11 45ZM48 47C47.4 47 47 47.4 47 48V52C47 52.6 46.6 53 46.1 53H13.9C13.4 53 13 52.6 13 52V49C13 48.4 12.5 48 12 48C11.4 48 11 48.4 11 49V52C11 53.7 12.2 55 13.6 55H46.4C47.8 55 49 53.7 49 52V48C49 47.4 48.5 47 48 47ZM43 33C39.7 33 37 35.7 37 39C37 42.3 39.7 45 43 45H53V33H43ZM51 43H43C40.8 43 39 41.2 39 39C39 36.8 40.8 35 43 35H51V43ZM41.5 39C41.5 39.3978 41.658 39.7794 41.9393 40.0607C42.2206 40.342 42.6022 40.5 43 40.5C43.3978 40.5 43.7794 40.342 44.0607 40.0607C44.342 39.7794 44.5 39.3978 44.5 39C44.5 38.6022 44.342 38.2206 44.0607 37.9393C43.7794 37.658 43.3978 37.5 43 37.5C42.6022 37.5 42.2206 37.658 41.9393 37.9393C41.658 38.2206 41.5 38.6022 41.5 39ZM37 19C39.8 19 42 16.8 42 14C42 11.2 39.8 9 37 9C34.2 9 32 11.2 32 14C32 16.8 34.2 19 37 19ZM37 11C38.7 11 40 12.3 40 14C40 15.7 38.7 17 37 17C35.3 17 34 15.7 34 14C34 12.3 35.3 11 37 11Z" fill="black"/>
</svg>
