<svg width="64" height="64" viewBox="0 0 64 64" fill="none" xmlns="http://www.w3.org/2000/svg">
<path d="M45.9609 38.5747L46.6629 38.4307C47.4378 38.2702 48.1185 37.8114 48.5582 37.1535C48.9978 36.4955 49.1612 35.691 49.0129 34.9137L48.6559 33.0567L50.2209 31.9967C50.8752 31.5518 51.3284 30.8676 51.4827 30.0916C51.6371 29.3156 51.4802 28.5101 51.0459 27.8487L50.0059 26.2707L51.0459 24.6907C51.4799 24.0294 51.6366 23.2241 51.4822 22.4483C51.3279 21.6726 50.8749 20.9886 50.2209 20.5437L48.6559 19.4837L49.0129 17.6267C49.1609 16.8495 48.9974 16.0453 48.5578 15.3876C48.1182 14.7298 47.4376 14.2712 46.6629 14.1107L44.8109 13.7297L44.4309 11.8777C44.2704 11.1028 43.8117 10.4221 43.1537 9.98248C42.4957 9.54283 41.6913 9.37949 40.9139 9.52771L39.0569 9.88571L37.997 8.31971C37.5521 7.66544 36.8678 7.21227 36.0919 7.05793C35.3159 6.9036 34.5103 7.06047 33.8489 7.49471L32.2709 8.53471L30.6909 7.49471C30.0297 7.06052 29.2243 6.90368 28.4485 7.05802C27.6727 7.21236 26.9886 7.66551 26.5439 8.31971L25.4839 9.88571L23.6269 9.52771C22.8497 9.37951 22.0454 9.54288 21.3876 9.98254C20.7298 10.4222 20.2713 11.1029 20.1109 11.8777L19.7299 13.7297L17.8779 14.1097C17.1031 14.2702 16.4224 14.729 15.9827 15.387C15.5431 16.0449 15.3797 16.8494 15.5279 17.6267L15.8859 19.4837L14.3199 20.5437C13.6657 20.9886 13.2125 21.6728 13.0582 22.4488C12.9038 23.2248 13.0607 24.0303 13.4949 24.6917L14.5349 26.2707L13.4949 27.8487C13.0607 28.5101 12.9038 29.3156 13.0582 30.0916C13.2125 30.8676 13.6657 31.5518 14.3199 31.9967L15.8859 33.0567L15.5279 34.9137C15.3797 35.691 15.5431 36.4955 15.9827 37.1535C16.4224 37.8114 17.1031 38.2702 17.8779 38.4307L19.7299 38.8107L20.1099 40.6627C20.2702 41.4377 20.7289 42.1186 21.387 42.5583C22.045 42.998 22.8496 43.1612 23.6269 43.0127L25.4839 42.6557L26.5129 44.1747L21.8889 54.5587C21.6659 55.0587 21.2329 55.0897 20.9259 54.6357L19.4079 52.3837C19.229 52.147 18.993 51.9595 18.7219 51.8388C18.4508 51.7182 18.1536 51.6682 17.8579 51.6937L15.1679 52.0717C14.6209 52.1487 14.3629 51.7947 14.5809 51.3047L16.7449 46.4447L16.7499 46.4327L18.3849 42.7617C18.4929 42.5194 18.5002 42.2442 18.4052 41.9966C18.3102 41.7489 18.1207 41.5492 17.8784 41.4412C17.6362 41.3333 17.3609 41.326 17.1133 41.421C16.8657 41.516 16.6659 41.7054 16.5579 41.9477L15.8679 43.4957L12.7539 50.4917C12.5462 50.9069 12.4588 51.3719 12.5014 51.8342C12.5439 52.2965 12.7149 52.7377 12.995 53.1079C13.2751 53.4782 13.6531 53.7627 14.0864 53.9295C14.5196 54.0963 14.9909 54.1386 15.4469 54.0517L17.8889 53.7087L19.2689 55.7537C19.5089 56.1516 19.8556 56.4742 20.2696 56.6851C20.6836 56.8961 21.1484 56.9868 21.6114 56.947C22.0743 56.9072 22.5168 56.7386 22.8888 56.4602C23.2608 56.1817 23.5473 55.8047 23.7159 55.3717L28.1579 45.3957C28.5799 45.5283 29.0261 45.5657 29.4642 45.5052C29.9024 45.4446 30.3217 45.2877 30.6919 45.0457L32.2709 44.0057L33.8489 45.0457C34.4572 45.4433 35.1897 45.6054 35.9089 45.5017L40.3039 55.3717C40.4725 55.8049 40.759 56.1822 41.1311 56.4609C41.5031 56.7395 41.9459 56.9082 42.409 56.948C42.8721 56.9878 43.3371 56.897 43.7512 56.6859C44.1654 56.4748 44.512 56.1518 44.7519 55.7537L46.1319 53.7087L48.5739 54.0517C49.03 54.1386 49.5013 54.0963 49.9345 53.9295C50.3678 53.7627 50.7458 53.4782 51.0259 53.1079C51.306 52.7377 51.4769 52.2965 51.5195 51.8342C51.5621 51.3719 51.4746 50.9069 51.2669 50.4917L45.9609 38.5747ZM33.1029 42.1587C32.8506 42.0104 32.5632 41.9322 32.2704 41.9322C31.9777 41.9322 31.6903 42.0104 31.4379 42.1587L29.5909 43.3757C29.3689 43.5204 29.0992 43.5725 28.8393 43.5209C28.5793 43.4693 28.3499 43.3182 28.1999 43.0997L26.9599 41.2687C26.7836 41.0352 26.548 40.853 26.2776 40.741C26.0072 40.629 25.7118 40.5913 25.4219 40.6317L23.2489 41.0497C22.9883 41.0985 22.7189 41.0434 22.4984 40.8961C22.2779 40.7489 22.1237 40.5212 22.0689 40.2617L21.6239 38.0947C21.5504 37.8116 21.4027 37.5533 21.196 37.3463C20.9892 37.1394 20.731 36.9915 20.4479 36.9177L18.2799 36.4717C18.0207 36.4169 17.7931 36.2629 17.6459 36.0426C17.4987 35.8223 17.4434 35.5532 17.4919 35.2927L17.9099 33.1207C17.9504 32.8308 17.9126 32.5355 17.8007 32.2651C17.6887 31.9947 17.5065 31.7591 17.2729 31.5827L15.4419 30.3427C15.223 30.1929 15.0715 29.9633 15.0197 29.7032C14.9679 29.443 15.0201 29.1729 15.1649 28.9507L16.3819 27.1037C16.5303 26.8513 16.6085 26.5639 16.6085 26.2712C16.6085 25.9785 16.5303 25.6911 16.3819 25.4387L15.1649 23.5917C15.0201 23.3697 14.968 23.0997 15.0198 22.8397C15.0716 22.5797 15.2231 22.3503 15.4419 22.2007L17.2729 20.9607C17.5065 20.7843 17.6887 20.5487 17.8007 20.2784C17.9126 20.008 17.9504 19.7126 17.9099 19.4227L17.4919 17.2497C17.4431 16.9891 17.4982 16.7197 17.6455 16.4991C17.7928 16.2786 18.0205 16.1245 18.2799 16.0697L20.4479 15.6247C20.731 15.551 20.9892 15.403 21.196 15.1961C21.4027 14.9892 21.5504 14.7308 21.6239 14.4477L22.0699 12.2807C22.1247 12.0212 22.2789 11.7935 22.4994 11.6463C22.7199 11.499 22.9893 11.4439 23.2499 11.4927L25.4219 11.9107C25.7117 11.9509 26.0068 11.9131 26.277 11.8011C26.5472 11.6892 26.7826 11.5071 26.9589 11.2737L28.1999 9.44171C28.3497 9.22307 28.5791 9.0717 28.839 9.01994C29.099 8.96818 29.3688 9.02013 29.5909 9.16471L31.4379 10.3817C31.6903 10.53 31.9777 10.6082 32.2704 10.6082C32.5632 10.6082 32.8506 10.53 33.1029 10.3817L34.9499 9.16471C35.1721 9.02013 35.4419 8.96818 35.7019 9.01994C35.9618 9.0717 36.1912 9.22307 36.3409 9.44171L37.5809 11.2727C37.7574 11.5064 37.9932 11.6887 38.2637 11.8007C38.5343 11.9127 38.8299 11.9503 39.1199 11.9097L41.2919 11.4917C41.5526 11.4429 41.822 11.498 42.0425 11.6453C42.263 11.7925 42.4172 12.0202 42.4719 12.2797L42.9169 14.4467C42.9905 14.7299 43.1384 14.9884 43.3454 15.1953C43.5523 15.4022 43.8107 15.5501 44.094 15.6237L46.2609 16.0697C46.5204 16.1245 46.7481 16.2786 46.8954 16.4991C47.0427 16.7197 47.0978 16.9891 47.0489 17.2497L46.6309 19.4217C46.5907 19.7114 46.6285 20.0066 46.7405 20.2768C46.8525 20.547 47.0346 20.7824 47.2679 20.9587L49.0989 22.1997C49.3176 22.3495 49.469 22.5789 49.5207 22.8388C49.5725 23.0987 49.5205 23.3686 49.3759 23.5907L48.1589 25.4377C48.0106 25.6901 47.9324 25.9775 47.9324 26.2702C47.9324 26.5629 48.0106 26.8503 48.1589 27.1027L49.3759 28.9497C49.5208 29.1718 49.5729 29.4417 49.5211 29.7017C49.4693 29.9617 49.3178 30.1911 49.0989 30.3407L47.2679 31.5807C47.0343 31.7572 46.852 31.9929 46.74 32.2635C46.628 32.5341 46.5903 32.8297 46.6309 33.1197L47.0489 35.2917C47.0978 35.5523 47.0427 35.8217 46.8954 36.0423C46.7481 36.2628 46.5204 36.4169 46.2609 36.4717L44.094 36.9167C43.8107 36.9903 43.5523 37.1382 43.3454 37.3451C43.1384 37.552 42.9905 37.8105 42.9169 38.0937L42.4709 40.2607C42.4162 40.52 42.2622 40.7475 42.0419 40.8947C41.8216 41.042 41.5524 41.0972 41.2919 41.0487L39.1199 40.6307C38.8301 40.5903 38.5347 40.628 38.2643 40.74C37.9939 40.852 37.7583 41.0342 37.5819 41.2677L36.3419 43.0987C36.1921 43.3176 35.9626 43.4692 35.7024 43.521C35.4422 43.5727 35.1722 43.5206 34.9499 43.3757L33.1029 42.1587ZM48.8529 52.0717L46.1629 51.6927C45.8673 51.6672 45.57 51.7172 45.299 51.8378C45.0279 51.9585 44.7918 52.146 44.6129 52.3827L43.0929 54.6357C42.7879 55.0897 42.3539 55.0587 42.1309 54.5587L37.691 44.5867C37.8026 44.4731 37.9049 44.3507 37.997 44.2207L39.0569 42.6557L40.9139 43.0127C41.6913 43.1609 42.4957 42.9976 43.1537 42.5579C43.8117 42.1183 44.2704 41.4376 44.4309 40.6627L44.5159 40.2467L49.4399 51.3047C49.6579 51.7947 49.4009 52.1487 48.8529 52.0717ZM40.9339 21.2557C40.9339 21.5209 41.0393 21.7753 41.2268 21.9628C41.4144 22.1503 41.6687 22.2557 41.9339 22.2557C42.1992 22.2557 42.4535 22.1503 42.6411 21.9628C42.8286 21.7753 42.9339 21.5209 42.9339 21.2557C42.9339 20.9905 42.8286 20.7361 42.6411 20.5486C42.4535 20.3611 42.1992 20.2557 41.9339 20.2557C41.6687 20.2557 41.4144 20.3611 41.2268 20.5486C41.0393 20.7361 40.9339 20.9905 40.9339 21.2557ZM43.9999 26.0007V24.9997C43.9999 24.7345 43.8946 24.4801 43.7071 24.2926C43.5195 24.1051 43.2652 23.9997 42.9999 23.9997C42.7347 23.9997 42.4804 24.1051 42.2928 24.2926C42.1053 24.4801 41.9999 24.7345 41.9999 24.9997V26.0017C42.0001 26.0529 42.0041 26.1041 42.0119 26.1547L41.9989 26.1627C41.9621 28.4312 41.155 30.6198 39.71 32.369C38.2651 34.1182 36.2683 35.324 34.0476 35.7885C31.8268 36.253 29.5142 35.9485 27.4893 34.9251C25.4644 33.9016 23.8478 32.2201 22.9049 30.1565C21.9619 28.0929 21.7487 25.77 22.3003 23.5693C22.8518 21.3685 24.1354 19.4208 25.9401 18.0458C27.7448 16.6709 29.9634 15.9505 32.2316 16.003C34.4998 16.0555 36.6828 16.8777 38.4219 18.3347L38.4229 18.3337L39.0479 18.9157C39.242 19.0966 39.4999 19.193 39.765 19.1837C40.03 19.1744 40.2806 19.0602 40.4614 18.8662C40.6423 18.6722 40.7387 18.4143 40.7294 18.1492C40.7202 17.8841 40.606 17.6336 40.4119 17.4527L40.2349 17.2877L40.2449 17.2817C40.0943 17.139 39.9396 17.0004 39.7809 16.8657L39.6789 16.7697C39.6295 16.7234 39.5756 16.6822 39.518 16.6467C37.3976 14.9423 34.761 14.009 32.0406 13.9998C29.3201 13.9906 26.6773 14.9061 24.5454 16.596C22.4136 18.286 20.9192 20.6502 20.3074 23.301C19.6955 25.9517 20.0026 28.7317 21.1781 31.1851C22.3536 33.6384 24.3279 35.6196 26.7772 36.8036C29.2265 37.9876 32.0054 38.3043 34.6582 37.7016C37.3111 37.099 39.6805 35.6128 41.3778 33.4868C43.0752 31.3608 43.9997 28.7212 43.9999 26.0007Z" fill="black"/>
</svg>
