<svg width="24" height="24" viewBox="0 0 24 24" fill="none" xmlns="http://www.w3.org/2000/svg">
<path d="M2 7C2 5.9 2.9 5 4 5H20C20.5304 5 21.0391 5.21071 21.4142 5.58579C21.7893 5.96086 22 6.46957 22 7V17C22 17.5304 21.7893 18.0391 21.4142 18.4142C21.0391 18.7893 20.5304 19 20 19H4C3.46957 19 2.96086 18.7893 2.58579 18.4142C2.21071 18.0391 2 17.5304 2 17V7ZM18.4 7H5.8L12.5 12.2L18.5 7H18.4ZM4 8.2V17H20V8.3L13.2 14.3C13.0189 14.4549 12.7884 14.5401 12.55 14.5401C12.3116 14.5401 12.0811 14.4549 11.9 14.3L4 8.2Z" fill="white"/>
</svg>
