<svg width="24" height="24" viewBox="0 0 24 24" fill="none" xmlns="http://www.w3.org/2000/svg">
<path d="M12 23.0001C9.71 23.0001 4 14.0101 4 9.74011C4.01693 8.70657 4.2373 7.68648 4.64853 6.73812C5.05976 5.78976 5.65379 4.93169 6.39668 4.21294C7.13958 3.49419 8.0168 2.92883 8.97822 2.54914C9.93965 2.16946 10.9665 1.9829 12 2.00011C16.42 2.00011 20 5.46011 20 9.74011C20 14.0001 14.29 23.0001 12 23.0001ZM12 4.00011C8.62 4.00011 6 6.63011 6 9.74011C6 10.4401 6.25 11.5201 6.79 12.8801C7.8735 15.5296 9.37601 17.9877 11.24 20.1601C11.54 20.4801 11.8 20.7101 12 20.8601C12.2 20.7101 12.45 20.4801 12.76 20.1601C13.5 19.3701 14.35 18.2401 15.16 16.9201C15.9566 15.634 16.6424 14.2824 17.21 12.8801C17.75 11.5201 18 10.4301 18 9.74011C18 6.64011 15.38 4.00011 12 4.00011ZM12 14.0001C10.9391 14.0001 9.92172 13.5787 9.17157 12.8285C8.42143 12.0784 8 11.061 8 10.0001C8 8.93925 8.42143 7.92183 9.17157 7.17169C9.92172 6.42154 10.9391 6.00011 12 6.00011C13.0609 6.00011 14.0783 6.42154 14.8284 7.17169C15.5786 7.92183 16 8.93925 16 10.0001C16 11.061 15.5786 12.0784 14.8284 12.8285C14.0783 13.5787 13.0609 14.0001 12 14.0001ZM12 8.00011C11.4696 8.00011 10.9609 8.21083 10.5858 8.5859C10.2107 8.96097 10 9.46968 10 10.0001C10 10.5305 10.2107 11.0393 10.5858 11.4143C10.9609 11.7894 11.4696 12.0001 12 12.0001C12.5304 12.0001 13.0391 11.7894 13.4142 11.4143C13.7893 11.0393 14 10.5305 14 10.0001C14 9.46968 13.7893 8.96097 13.4142 8.5859C13.0391 8.21083 12.5304 8.00011 12 8.00011Z" fill="white"/>
</svg>
