<svg width="24" height="24" viewBox="0 0 24 24" fill="none" xmlns="http://www.w3.org/2000/svg">
<path d="M5.79998 3.7002C6.79998 2.7002 8.49998 2.7002 9.49998 3.7002L10.7 5.0002C11.7 6.0002 11.7 7.7002 10.7 8.7002L10.2 9.2002C10.2 9.3002 10.2 9.5002 10.4 9.7002C10.8 10.4002 11.4 11.2002 12.6 12.4002C13.7 13.4002 14.6 14.2002 15.2 14.5002L15.8 14.7002L16.3 14.2002C17.3 13.2002 19 13.2002 20 14.2002L21.2 15.4002C22.2 16.4002 22.2 18.1002 21.2 19.1002C20.5973 19.7954 19.9633 20.4627 19.3 21.1002C18.7396 21.4143 18.1147 21.5956 17.4732 21.6303C16.8318 21.665 16.1909 21.552 15.6 21.3002C15.3624 21.2105 15.1288 21.1104 14.9 21.0002L15.3 20.1002L14.9 21.1002C13.1 20.1002 10.9 18.6002 8.59998 16.3002C6.78249 14.535 5.23278 12.5136 3.99998 10.3002C3.59998 9.5002 3.19998 8.7002 3.09998 8.1002V7.0002C3.09998 6.8002 3.09998 6.4002 3.39998 6.0002L5.79998 3.7002ZM15.8 19.1002C16.1801 19.287 16.5838 19.4215 17 19.5002C17.6 19.5002 18 19.4002 18.3 19.2002L18.6 18.9002C18.9899 18.5222 19.3572 18.1215 19.7 17.7002H19.8C20.1 17.4002 20.1 17.0002 19.8 16.7002L18.6 15.6002C18.4739 15.4944 18.3146 15.4364 18.15 15.4364C17.9854 15.4364 17.8261 15.4944 17.7 15.6002L17.1 16.1002C16.7 16.6002 16.1 16.7002 15.7 16.6002C15.2 16.6002 14.7 16.4002 14.3 16.2002C13.4 15.7002 12.3 14.9002 11.2 13.7002C9.99998 12.5002 9.19998 11.5002 8.69998 10.6002C8.39998 10.2002 8.19998 9.6002 8.19998 9.2002C8.19998 8.7002 8.19998 8.2002 8.69998 7.8002L9.29998 7.2002C9.49998 6.9002 9.49998 6.5002 9.29998 6.3002L7.99998 5.1002C7.9348 5.03368 7.85701 4.98083 7.77115 4.94475C7.6853 4.90868 7.5931 4.89009 7.49998 4.89009C7.40685 4.89009 7.31466 4.90868 7.2288 4.94475C7.14295 4.98083 7.06515 5.03368 6.99998 5.1002L4.99998 7.3002V7.60019L5.79998 9.3002C6.92692 11.3268 8.34162 13.1794 9.99998 14.8002C12.2 16.9002 14.2 18.4002 15.7 19.1002H15.8Z" fill="white"/>
</svg>
