<svg width="64" height="64" viewBox="0 0 64 64" fill="none" xmlns="http://www.w3.org/2000/svg">
<path d="M48.932 33.808C48.462 33.331 45.303 30.388 44.207 29.293C43.789 28.875 41.943 26.99 41.486 26.542C40.774 25.8086 39.9938 25.1446 39.156 24.559C36.872 23.039 34.586 23.049 30.641 24.567C24.616 26.884 24.131 26.884 23.428 25.129C23.309 24.83 23.911 23.806 25.224 22.494C25.8241 21.9006 26.4503 21.3344 27.101 20.797C27.9841 20.0651 28.8919 19.3637 29.823 18.694C30.149 18.459 30.451 18.246 30.721 18.06L30.808 18H40C40.1626 18.0036 40.3248 18.0163 40.486 18.038C40.867 18.0829 41.2415 18.1718 41.602 18.303C42.0269 18.4367 42.3995 18.6996 42.668 19.055C42.749 19.177 43.116 19.749 43.218 19.905C43.48 20.302 43.718 20.635 43.981 20.961C44.7451 21.9523 45.736 22.7456 46.8704 23.2745C48.0048 23.8033 49.2495 24.0521 50.5 24H52C52.2652 24 52.5196 23.8946 52.7071 23.7071C52.8946 23.5196 53 23.2652 53 23C53 22.7348 52.8946 22.4804 52.7071 22.2929C52.5196 22.1054 52.2652 22 52 22H50.5C49.5486 22.0512 48.599 21.8689 47.7342 21.4691C46.8693 21.0692 46.1154 20.464 45.538 19.706C45.321 19.436 45.118 19.152 44.888 18.804C44.796 18.664 44.426 18.086 44.332 17.945C43.8344 17.2371 43.124 16.7063 42.304 16.43C41.5669 16.1536 40.7872 16.0081 40 16H24.5C21.791 16 19.613 17.195 17.518 19.329C17.068 19.787 16.055 20.946 15.56 21.5H13C12.7348 21.5 12.4804 21.6054 12.2929 21.7929C12.1054 21.9804 12 22.2348 12 22.5C12 22.7652 12.1054 23.0196 12.2929 23.2071C12.4804 23.3946 12.7348 23.5 13 23.5H16.414L16.707 23.207C16.967 22.947 18.442 21.243 18.945 20.73C20.699 18.944 22.419 18 24.5 18H27.41C26.868 18.413 26.334 18.834 25.821 19.26C25.1234 19.8362 24.4521 20.4435 23.809 21.08C21.922 22.967 21.022 24.497 21.571 25.871C22.869 29.116 24.384 29.116 31.359 26.433C34.755 25.127 36.389 25.119 38.049 26.224C38.7805 26.7406 39.4621 27.3245 40.085 27.968C40.525 28.401 42.362 30.276 42.793 30.708C43.924 31.838 47.077 34.774 47.508 35.212C48.562 36.282 48.938 36.905 48.895 37.332C48.8059 37.71 48.5942 38.0479 48.293 38.293C47.873 38.713 47.246 39.325 46.457 40.088C46.431 40.0402 46.4008 39.9947 46.367 39.952L42.119 35.705C41.9304 35.5228 41.6778 35.422 41.4156 35.4243C41.1534 35.4266 40.9026 35.5318 40.7172 35.7172C40.5318 35.9026 40.4266 36.1534 40.4243 36.4156C40.4221 36.6778 40.5228 36.9304 40.705 37.119L44.952 41.366C44.9854 41.3917 45.0204 41.4151 45.057 41.436C44.361 42.103 43.664 42.769 42.966 43.434L42.879 43.517L41.369 44.955L41.366 44.952L37.119 40.705C36.9304 40.5228 36.6778 40.422 36.4156 40.4243C36.1534 40.4266 35.9026 40.5318 35.7172 40.7172C35.5318 40.9026 35.4266 41.1534 35.4243 41.4156C35.422 41.6778 35.5228 41.9304 35.705 42.119L39.918 46.332L38.708 47.48C38.0767 48.0781 37.445 48.6757 36.813 49.273C36.7141 49.3624 36.6038 49.4384 36.485 49.499C36.0449 49.7174 35.5507 49.8029 35.0628 49.7448C34.5749 49.6867 34.1145 49.4877 33.738 49.172C34.0576 48.8589 34.2918 48.4692 34.4182 48.04C34.5445 47.6108 34.559 47.1564 34.46 46.72C34.0432 45.7512 33.4914 44.8462 32.821 44.032L32.565 43.684C31.984 42.9021 31.3883 42.1313 30.778 41.372L30.411 40.937C29.1565 39.4522 27.9059 37.9642 26.659 36.473L26.579 36.377C25.4674 35.0531 24.3681 33.7191 23.281 32.375C21.799 30.523 20.028 30.358 18.501 31.26C18.2441 31.4081 18.0064 31.5871 17.793 31.793L13.793 35.793C13.2864 36.2835 12.8731 36.8619 12.573 37.5H7V39.5H12.298C12.3843 39.9184 12.5562 40.3143 12.803 40.663C12.968 40.9048 13.1694 41.1196 13.4 41.3L14.033 41.762C16.2448 43.3774 18.4582 44.9907 20.673 46.602L20.733 46.644C24.71 49.535 27.306 51.406 27.945 51.832C28.3282 52.0791 28.771 52.2182 29.2267 52.2345C29.6824 52.2509 30.134 52.144 30.534 51.925C31.1974 51.5867 31.8023 51.1444 32.326 50.615C33.0177 51.2178 33.8732 51.6008 34.7835 51.7153C35.6938 51.8299 36.6176 51.6707 37.437 51.258C37.7182 51.1113 37.9774 50.9258 38.207 50.707L38.709 50.234C40.5621 48.481 42.4121 46.7246 44.259 44.965L44.346 44.882C46.896 42.45 48.772 40.642 49.707 39.707C50.0677 39.357 50.3672 38.949 50.593 38.5H57V36.5H50.791C50.4057 35.4616 49.7666 34.5362 48.932 33.808ZM15.212 40.148L14.59 39.693C14.5341 39.6381 14.4839 39.5778 14.44 39.513C14.055 38.966 14.117 38.297 15.207 37.207L19.207 33.207C19.3022 33.121 19.4065 33.0456 19.518 32.982C20.245 32.553 20.911 32.615 21.719 33.625C22.216 34.246 22.954 35.145 23.871 36.25C23.8248 36.2737 23.7807 36.3011 23.739 36.332L17.776 42.018L16.855 41.346L15.212 40.148ZM21.85 44.984L19.419 43.214L25.103 37.794C25.113 37.784 25.117 37.77 25.128 37.759C26.2155 39.0603 27.3062 40.359 28.4 41.655L23.562 46.227L21.908 45.027L21.85 44.984ZM29.688 50.112C29.372 50.26 29.197 50.262 29.055 50.168C28.642 49.893 27.275 48.915 25.211 47.421L29.676 43.201L29.763 43.311C30.171 43.831 30.579 44.363 30.958 44.875C31.0427 44.989 31.125 45.101 31.205 45.211C31.7151 45.8564 32.1622 46.5492 32.54 47.28C32.5186 47.4742 32.4315 47.6552 32.293 47.793C32.184 47.902 31.418 48.711 31.167 48.959C30.7394 49.4206 30.24 49.81 29.688 50.112ZM55 23C55 23.2652 55.1054 23.5196 55.2929 23.7071C55.4804 23.8946 55.7348 24 56 24C56.2652 24 56.5196 23.8946 56.7071 23.7071C56.8946 23.5196 57 23.2652 57 23C57 22.7348 56.8946 22.4804 56.7071 22.2929C56.5196 22.1054 56.2652 22 56 22C55.7348 22 55.4804 22.1054 55.2929 22.2929C55.1054 22.4804 55 22.7348 55 23ZM8 23.5H9C9.26522 23.5 9.51957 23.3946 9.70711 23.2071C9.89464 23.0196 10 22.7652 10 22.5C10 22.2348 9.89464 21.9804 9.70711 21.7929C9.51957 21.6054 9.26522 21.5 9 21.5H8C7.73478 21.5 7.48043 21.6054 7.29289 21.7929C7.10536 21.9804 7 22.2348 7 22.5C7 22.7652 7.10536 23.0196 7.29289 23.2071C7.48043 23.3946 7.73478 23.5 8 23.5Z" fill="#8248FA"/>
</svg>
