<svg width="106" height="106" viewBox="0 0 106 106" fill="none" xmlns="http://www.w3.org/2000/svg">
<g filter="url(#filter0_d_5_111)">
<circle cx="46" cy="45" r="40" fill="white"/>
</g>
<path fill-rule="evenodd" clip-rule="evenodd" d="M61.42 43.0618C60.8092 45.2315 59.74 47.2478 58.2832 48.9771C56.8264 50.7063 55.0153 52.1089 52.97 53.092C52.9036 52.4166 52.7203 51.7575 52.428 51.1438C54.2548 50.2068 55.8512 48.8831 57.1041 47.2666C58.357 45.65 59.2357 43.7801 59.678 41.7894H59.686L59.764 41.4525C59.7934 41.3258 59.8479 41.206 59.9241 41.1002C60.0004 40.9943 60.097 40.9044 60.2084 40.8357C60.3198 40.7669 60.4438 40.7206 60.5733 40.6994C60.7028 40.6782 60.8352 40.6826 60.963 40.7123C61.505 40.8361 61.837 41.3663 61.713 41.8994L61.487 42.8666C61.4719 42.9339 61.4495 42.9993 61.42 43.0618ZM60.7 32.548C58.248 26.9086 52.59 22.9617 46 22.9617C37.163 22.9617 30 30.0597 30 38.8166C30 45.8443 34.614 51.8038 41.003 53.8828L41.01 53.8848C41.1334 53.9296 41.2644 53.9497 41.3957 53.9442C41.5269 53.9386 41.6558 53.9074 41.7748 53.8523C41.8939 53.7973 42.0007 53.7194 42.0893 53.6233C42.1779 53.5272 42.2464 53.4146 42.291 53.2922C42.3364 53.1699 42.3569 53.04 42.3515 52.9099C42.346 52.7798 42.3146 52.652 42.2591 52.5339C42.2037 52.4159 42.1252 52.3098 42.0282 52.222C41.9312 52.1341 41.8176 52.066 41.694 52.0218L40.757 51.6849C35.623 49.6277 32 44.6403 32 38.8166C32 31.1547 38.268 24.9435 46 24.9435C51.97 24.9435 57.068 28.6467 59.08 33.8619H59.085L59.267 34.3852C59.3094 34.5084 59.376 34.6222 59.4629 34.7198C59.5499 34.8175 59.6554 34.8972 59.7736 34.9543C59.8917 35.0114 60.02 35.0448 60.1512 35.0525C60.2824 35.0603 60.4139 35.0423 60.538 34.9995C60.7683 34.9217 60.962 34.7631 61.0825 34.5535C61.2029 34.344 61.2419 34.098 61.192 33.8619H61.203C61.143 33.6786 61.078 33.4963 61.011 33.3169L60.832 32.8017C60.8006 32.7109 60.7561 32.6261 60.7 32.548ZM61 38.8166C61.2652 38.8166 61.5196 38.7122 61.7071 38.5264C61.8946 38.3405 62 38.0885 62 37.8257C62 37.5629 61.8946 37.3108 61.7071 37.125C61.5196 36.9391 61.2652 36.8347 61 36.8347C60.7348 36.8347 60.4804 36.9391 60.2929 37.125C60.1054 37.3108 60 37.5629 60 37.8257C60 38.0885 60.1054 38.3405 60.2929 38.5264C60.4804 38.7122 60.7348 38.8166 61 38.8166ZM50 54.6716C50.5304 54.6716 51.0391 54.4627 51.4142 54.0911C51.7893 53.7194 52 53.2153 52 52.6897C52 52.1641 51.7893 51.66 51.4142 51.2883C51.0391 50.9166 50.5304 50.7078 50 50.7078C49.4696 50.7078 48.9609 50.9166 48.5858 51.2883C48.2107 51.66 48 52.1641 48 52.6897C48 53.2153 48.2107 53.7194 48.5858 54.0911C48.9609 54.4627 49.4696 54.6716 50 54.6716ZM50 56.6534C48.9391 56.6534 47.9217 56.2358 47.1716 55.4925C46.4214 54.7491 46 53.7409 46 52.6897C46 51.6384 46.4214 50.6302 47.1716 49.8869C47.9217 49.1436 48.9391 48.726 50 48.726C51.0609 48.726 52.0783 49.1436 52.8284 49.8869C53.5786 50.6302 54 51.6384 54 52.6897C54 53.7409 53.5786 54.7491 52.8284 55.4925C52.0783 56.2358 51.0609 56.6534 50 56.6534ZM65.023 47.3357C65.9639 48.2143 66.7134 49.2744 67.2254 50.4508C67.7374 51.6272 68.001 52.895 68 54.1761C68 59.3745 63.746 63.59 58.5 63.59H33.5C28.256 63.59 24 59.3686 24 54.1761C23.9989 52.7199 24.3393 51.2835 24.9942 49.98C25.6491 48.6765 26.6008 47.5416 27.774 46.6648L27.892 46.5657C27.9925 46.4819 28.1086 46.4185 28.2339 46.3793C28.3591 46.3401 28.4909 46.3258 28.6218 46.3372C28.7526 46.3486 28.8799 46.3855 28.9963 46.4458C29.1127 46.5061 29.2159 46.5886 29.3 46.6886C29.3847 46.7881 29.4487 46.9032 29.4883 47.0272C29.528 47.1513 29.5425 47.2819 29.5311 47.4115C29.5197 47.5412 29.4825 47.6673 29.4217 47.7827C29.361 47.8981 29.2778 48.0004 29.177 48.0838L28.41 48.722C28.398 48.7319 28.387 48.7418 28.375 48.7497C27.6244 49.4442 27.0262 50.2844 26.6176 51.218C26.209 52.1516 25.9988 53.1585 26 54.1761C26 58.2726 29.358 61.6081 33.5 61.6081H58.5C60.4891 61.6081 62.3968 60.8251 63.8033 59.4313C65.2098 58.0375 66 56.1472 66 54.1761C66 51.9584 65.016 49.9646 63.456 48.6001L63.172 48.3643C63.1537 48.35 63.1354 48.3358 63.117 48.3216V48.3197L62.847 48.0947C62.7463 48.0112 62.6632 47.9088 62.6025 47.7934C62.5418 47.678 62.5048 47.5519 62.4934 47.4222C62.4821 47.2926 62.4967 47.162 62.5365 47.038C62.5762 46.9139 62.6403 46.7989 62.725 46.6995C62.8091 46.5995 62.9123 46.517 63.0287 46.4567C63.1451 46.3964 63.2724 46.3595 63.4032 46.3481C63.5341 46.3367 63.6659 46.351 63.7911 46.3902C63.9164 46.4294 64.0325 46.4928 64.133 46.5766L64.438 46.8303C64.548 46.9175 64.654 47.0057 64.759 47.0978L64.901 47.2148C64.946 47.2524 64.986 47.2921 65.023 47.3357ZM23 35.8339V39.8175C23 40.3516 23.452 40.7985 24.01 40.7985H25.99C26.1215 40.8004 26.2521 40.7766 26.3742 40.7282C26.4963 40.6798 26.6076 40.608 26.7015 40.5167C26.7954 40.4255 26.8702 40.3167 26.9214 40.1967C26.9726 40.0767 26.9994 39.9478 27 39.8175V35.8339C27 35.2998 26.548 34.8529 25.99 34.8529H24.01C23.8785 34.8509 23.7479 34.8748 23.6258 34.9232C23.5037 34.9715 23.3924 35.0434 23.2985 35.1346C23.2046 35.2258 23.1298 35.3346 23.0786 35.4546C23.0274 35.5747 23.0006 35.7036 23 35.8339ZM21 35.8339C21 34.189 22.347 32.871 24.01 32.871H25.99C27.644 32.871 29 34.1969 29 35.8339V39.8175C29 41.4624 27.653 42.7803 25.99 42.7803H24.01C22.355 42.7803 21 41.4545 21 39.8175V35.8339ZM65 35.8339V39.8175C65 40.3516 65.452 40.7985 66.01 40.7985H67.99C68.1215 40.8004 68.2521 40.7766 68.3742 40.7282C68.4963 40.6798 68.6076 40.608 68.7015 40.5167C68.7954 40.4255 68.8702 40.3167 68.9214 40.1967C68.9726 40.0767 68.9994 39.9478 69 39.8175V35.8339C69 35.2998 68.548 34.8529 67.99 34.8529H66.01C65.8785 34.8509 65.7479 34.8748 65.6258 34.9232C65.5037 34.9715 65.3924 35.0434 65.2985 35.1346C65.2046 35.2258 65.1298 35.3346 65.0786 35.4546C65.0274 35.5747 65.0006 35.7036 65 35.8339ZM63 35.8339C63 34.189 64.347 32.871 66.01 32.871H67.99C69.644 32.871 71 34.1969 71 35.8339V39.8175C71 41.4624 69.653 42.7803 67.99 42.7803H66.01C64.355 42.7803 63 41.4545 63 39.8175V35.8339ZM24.363 33.8619C26.243 23.7148 35.216 16.0251 46 16.0251C56.784 16.0251 65.756 23.7148 67.637 33.8619H65.6C63.747 24.8157 55.676 18.007 46 18.007C36.324 18.007 28.253 24.8157 26.4 33.8619H24.363Z" fill="#8248FA"/>
<defs>
<filter id="filter0_d_5_111" x="0" y="0" width="106" height="106" filterUnits="userSpaceOnUse" color-interpolation-filters="sRGB">
<feFlood flood-opacity="0" result="BackgroundImageFix"/>
<feColorMatrix in="SourceAlpha" type="matrix" values="0 0 0 0 0 0 0 0 0 0 0 0 0 0 0 0 0 0 127 0" result="hardAlpha"/>
<feMorphology radius="12" operator="erode" in="SourceAlpha" result="effect1_dropShadow_5_111"/>
<feOffset dx="7" dy="8"/>
<feGaussianBlur stdDeviation="12.5"/>
<feComposite in2="hardAlpha" operator="out"/>
<feColorMatrix type="matrix" values="0 0 0 0 0.509804 0 0 0 0 0.282353 0 0 0 0 0.980392 0 0 0 0.4 0"/>
<feBlend mode="normal" in2="BackgroundImageFix" result="effect1_dropShadow_5_111"/>
<feBlend mode="normal" in="SourceGraphic" in2="effect1_dropShadow_5_111" result="shape"/>
</filter>
</defs>
</svg>
