<svg width="50" height="48" viewBox="0 0 50 48" fill="none" xmlns="http://www.w3.org/2000/svg">
<path fill-rule="evenodd" clip-rule="evenodd" d="M40.42 27.0618C39.8092 29.2315 38.74 31.2478 37.2832 32.9771C35.8264 34.7063 34.0153 36.1089 31.97 37.092C31.9036 36.4166 31.7203 35.7575 31.428 35.1438C33.2548 34.2068 34.8512 32.8831 36.1041 31.2666C37.357 29.65 38.2357 27.7801 38.678 25.7894H38.686L38.764 25.4525C38.7934 25.3258 38.8479 25.206 38.9241 25.1002C39.0004 24.9943 39.097 24.9044 39.2084 24.8357C39.3198 24.7669 39.4438 24.7206 39.5733 24.6994C39.7028 24.6782 39.8352 24.6826 39.963 24.7123C40.505 24.8361 40.837 25.3663 40.713 25.8994L40.487 26.8666C40.4719 26.9339 40.4495 26.9993 40.42 27.0618ZM39.7 16.548C37.248 10.9086 31.59 6.96168 25 6.96168C16.163 6.96168 9 14.0597 9 22.8166C9 29.8443 13.614 35.8038 20.003 37.8828L20.01 37.8848C20.1334 37.9296 20.2644 37.9497 20.3957 37.9442C20.5269 37.9386 20.6558 37.9074 20.7748 37.8523C20.8939 37.7973 21.0007 37.7194 21.0893 37.6233C21.1779 37.5272 21.2464 37.4146 21.291 37.2922C21.3364 37.1699 21.3569 37.04 21.3515 36.9099C21.346 36.7798 21.3146 36.652 21.2591 36.5339C21.2037 36.4159 21.1252 36.3098 21.0282 36.222C20.9312 36.1341 20.8176 36.066 20.694 36.0218L19.757 35.6849C14.623 33.6277 11 28.6403 11 22.8166C11 15.1547 17.268 8.94355 25 8.94355C30.97 8.94355 36.068 12.6467 38.08 17.8619H38.085L38.267 18.3852C38.3094 18.5084 38.376 18.6222 38.4629 18.7198C38.5499 18.8175 38.6554 18.8972 38.7736 18.9543C38.8917 19.0114 39.02 19.0448 39.1512 19.0525C39.2824 19.0603 39.4139 19.0423 39.538 18.9995C39.7683 18.9217 39.962 18.7631 40.0825 18.5535C40.2029 18.344 40.2419 18.098 40.192 17.8619H40.203C40.143 17.6786 40.078 17.4963 40.011 17.3169L39.832 16.8017C39.8006 16.7109 39.7561 16.6261 39.7 16.548ZM40 22.8166C40.2652 22.8166 40.5196 22.7122 40.7071 22.5264C40.8946 22.3405 41 22.0885 41 21.8257C41 21.5629 40.8946 21.3108 40.7071 21.125C40.5196 20.9391 40.2652 20.8347 40 20.8347C39.7348 20.8347 39.4804 20.9391 39.2929 21.125C39.1054 21.3108 39 21.5629 39 21.8257C39 22.0885 39.1054 22.3405 39.2929 22.5264C39.4804 22.7122 39.7348 22.8166 40 22.8166ZM29 38.6716C29.5304 38.6716 30.0391 38.4627 30.4142 38.0911C30.7893 37.7194 31 37.2153 31 36.6897C31 36.1641 30.7893 35.66 30.4142 35.2883C30.0391 34.9166 29.5304 34.7078 29 34.7078C28.4696 34.7078 27.9609 34.9166 27.5858 35.2883C27.2107 35.66 27 36.1641 27 36.6897C27 37.2153 27.2107 37.7194 27.5858 38.0911C27.9609 38.4627 28.4696 38.6716 29 38.6716ZM29 40.6534C27.9391 40.6534 26.9217 40.2358 26.1716 39.4925C25.4214 38.7491 25 37.7409 25 36.6897C25 35.6384 25.4214 34.6302 26.1716 33.8869C26.9217 33.1436 27.9391 32.726 29 32.726C30.0609 32.726 31.0783 33.1436 31.8284 33.8869C32.5786 34.6302 33 35.6384 33 36.6897C33 37.7409 32.5786 38.7491 31.8284 39.4925C31.0783 40.2358 30.0609 40.6534 29 40.6534ZM44.023 31.3357C44.9639 32.2143 45.7134 33.2744 46.2254 34.4508C46.7374 35.6272 47.001 36.895 47 38.1761C47 43.3745 42.746 47.59 37.5 47.59H12.5C7.256 47.59 3 43.3686 3 38.1761C2.99891 36.7199 3.33926 35.2835 3.9942 33.98C4.64914 32.6765 5.60076 31.5416 6.774 30.6648L6.892 30.5657C6.99245 30.4819 7.10864 30.4185 7.23387 30.3793C7.35911 30.3401 7.49093 30.3258 7.62177 30.3372C7.75261 30.3486 7.87988 30.3855 7.99627 30.4458C8.11266 30.5061 8.21588 30.5886 8.3 30.6886C8.38467 30.7881 8.44868 30.9032 8.48834 31.0272C8.528 31.1513 8.54253 31.2819 8.5311 31.4115C8.51967 31.5412 8.4825 31.6673 8.42174 31.7827C8.36097 31.8981 8.2778 32.0004 8.177 32.0838L7.41 32.722C7.398 32.7319 7.387 32.7418 7.375 32.7497C6.62444 33.4442 6.02623 34.2844 5.61762 35.218C5.20902 36.1516 4.99878 37.1585 5 38.1761C5 42.2726 8.358 45.6081 12.5 45.6081H37.5C39.4891 45.6081 41.3968 44.8251 42.8033 43.4313C44.2098 42.0375 45 40.1472 45 38.1761C45 35.9584 44.016 33.9646 42.456 32.6001L42.172 32.3643C42.1537 32.35 42.1354 32.3358 42.117 32.3216V32.3197L41.847 32.0947C41.7463 32.0112 41.6632 31.9088 41.6025 31.7934C41.5418 31.678 41.5048 31.5519 41.4934 31.4222C41.4821 31.2926 41.4967 31.162 41.5365 31.038C41.5762 30.9139 41.6403 30.7989 41.725 30.6995C41.8091 30.5995 41.9123 30.517 42.0287 30.4567C42.1451 30.3964 42.2724 30.3595 42.4032 30.3481C42.5341 30.3367 42.6659 30.351 42.7911 30.3902C42.9164 30.4294 43.0325 30.4928 43.133 30.5766L43.438 30.8303C43.548 30.9175 43.654 31.0057 43.759 31.0978L43.901 31.2148C43.946 31.2524 43.986 31.2921 44.023 31.3357ZM2 19.8339V23.8175C2 24.3516 2.452 24.7985 3.01 24.7985H4.99C5.1215 24.8004 5.25209 24.7766 5.37422 24.7282C5.49635 24.6798 5.60759 24.608 5.70151 24.5167C5.79543 24.4255 5.87017 24.3167 5.92141 24.1967C5.97264 24.0767 5.99935 23.9478 6 23.8175V19.8339C6 19.2998 5.548 18.8529 4.99 18.8529H3.01C2.8785 18.8509 2.74791 18.8748 2.62578 18.9232C2.50365 18.9715 2.39241 19.0434 2.29849 19.1346C2.20457 19.2258 2.12983 19.3346 2.07859 19.4546C2.02736 19.5747 2.00065 19.7036 2 19.8339ZM0 19.8339C0 18.189 1.347 16.871 3.01 16.871H4.99C6.644 16.871 8 18.1969 8 19.8339V23.8175C8 25.4624 6.653 26.7803 4.99 26.7803H3.01C1.355 26.7803 0 25.4545 0 23.8175V19.8339ZM44 19.8339V23.8175C44 24.3516 44.452 24.7985 45.01 24.7985H46.99C47.1215 24.8004 47.2521 24.7766 47.3742 24.7282C47.4963 24.6798 47.6076 24.608 47.7015 24.5167C47.7954 24.4255 47.8702 24.3167 47.9214 24.1967C47.9726 24.0767 47.9994 23.9478 48 23.8175V19.8339C48 19.2998 47.548 18.8529 46.99 18.8529H45.01C44.8785 18.8509 44.7479 18.8748 44.6258 18.9232C44.5037 18.9715 44.3924 19.0434 44.2985 19.1346C44.2046 19.2258 44.1298 19.3346 44.0786 19.4546C44.0274 19.5747 44.0006 19.7036 44 19.8339ZM42 19.8339C42 18.189 43.347 16.871 45.01 16.871H46.99C48.644 16.871 50 18.1969 50 19.8339V23.8175C50 25.4624 48.653 26.7803 46.99 26.7803H45.01C43.355 26.7803 42 25.4545 42 23.8175V19.8339ZM3.363 17.8619C5.243 7.71479 14.216 0.0251465 25 0.0251465C35.784 0.0251465 44.756 7.71479 46.637 17.8619H44.6C42.747 8.81572 34.676 2.00701 25 2.00701C15.324 2.00701 7.253 8.81572 5.4 17.8619H3.363Z" fill="#8248FA"/>
</svg>
